<svg width="60" height="37" viewBox="0 0 60 37" fill="none" xmlns="http://www.w3.org/2000/svg">
<path fill-rule="evenodd" clip-rule="evenodd" d="M59.3689 0.195312C59.7139 0.195312 60 0.460425 60 0.787114V36.2799C60 36.6015 59.7139 36.8683 59.3689 36.8683H51.2391C50.8904 36.8683 50.6079 36.6015 50.6079 36.2799V0.787114C50.6079 0.460425 50.8904 0.195312 51.2391 0.195312H59.3689ZM24.0926 0.195312C30.2253 0.195312 36.6369 0.463848 39.798 3.49128C42.909 6.47072 43.2446 12.402 43.2573 18.1619L43.2576 36.2799C43.2576 36.6015 42.9752 36.8683 42.6265 36.8683H34.5003C34.1516 36.8683 33.8673 36.6015 33.8673 36.2799V17.8502C33.8584 14.6329 33.6653 11.3267 31.931 9.66246C30.4381 8.23084 27.6524 7.90244 24.7559 7.83402H10.0232C9.67639 7.83402 9.39388 8.10085 9.39388 8.42241V36.2799C9.39388 36.6015 9.10782 36.8683 8.76095 36.8683H0.627567C0.280704 36.8683 0 36.6015 0 36.2799V0.787114C0 0.460425 0.280704 0.195312 0.627567 0.195312H24.0926ZM25.9128 14.3302C26.2578 14.3302 26.5385 14.5953 26.5385 14.9186V36.2799C26.5385 36.6015 26.2578 36.8683 25.9128 36.8683H17.3735C17.0231 36.8683 16.7406 36.6015 16.7406 36.2799V14.9186C16.7406 14.5953 17.0231 14.3302 17.3735 14.3302H25.9128Z" fill="#FF4C0D"/>
</svg>
